<svg width="162" height="47" viewBox="0 0 162 47" fill="none" xmlns="http://www.w3.org/2000/svg">
<path d="M12.457 28.4688V31H3.87891V28.4688H12.457ZM4.85156 13.9375V31H1.62891V13.9375H4.85156ZM20.0742 31.2344C19.1133 31.2344 18.25 31.0781 17.4844 30.7656C16.7188 30.4531 16.0664 30.0195 15.5273 29.4648C14.9961 28.9023 14.5859 28.25 14.2969 27.5078C14.0156 26.7578 13.875 25.9531 13.875 25.0938V24.625C13.875 23.6484 14.0156 22.7617 14.2969 21.9648C14.5781 21.1602 14.9766 20.4688 15.4922 19.8906C16.0078 19.3125 16.625 18.8672 17.3438 18.5547C18.0625 18.2422 18.8555 18.0859 19.7227 18.0859C20.6211 18.0859 21.4141 18.2383 22.1016 18.543C22.7891 18.8398 23.3633 19.2617 23.8242 19.8086C24.2852 20.3555 24.6328 21.0117 24.8672 21.7773C25.1016 22.5352 25.2188 23.375 25.2188 24.2969V25.5977H15.2812V23.4648H22.1719V23.2305C22.1562 22.7383 22.0625 22.2891 21.8906 21.8828C21.7188 21.4688 21.4531 21.1406 21.0938 20.8984C20.7344 20.6484 20.2695 20.5234 19.6992 20.5234C19.2383 20.5234 18.8359 20.625 18.4922 20.8281C18.1562 21.0234 17.875 21.3047 17.6484 21.6719C17.4297 22.0312 17.2656 22.4609 17.1562 22.9609C17.0469 23.4609 16.9922 24.0156 16.9922 24.625V25.0938C16.9922 25.625 17.0625 26.1172 17.2031 26.5703C17.3516 27.0234 17.5664 27.418 17.8477 27.7539C18.1367 28.082 18.4805 28.3398 18.8789 28.5273C19.2852 28.707 19.7461 28.7969 20.2617 28.7969C20.9102 28.7969 21.4961 28.6719 22.0195 28.4219C22.5508 28.1641 23.0117 27.7852 23.4023 27.2852L24.9609 28.9023C24.6953 29.293 24.3359 29.668 23.8828 30.0273C23.4375 30.3867 22.8984 30.6797 22.2656 30.9062C21.6328 31.125 20.9023 31.2344 20.0742 31.2344ZM33.293 18.3203V20.5469H26.0273V18.3203H33.293ZM27.9727 15.2031H31.0781V27.3438C31.0781 27.7188 31.1289 28.0078 31.2305 28.2109C31.332 28.4141 31.4844 28.5508 31.6875 28.6211C31.8906 28.6914 32.1328 28.7266 32.4141 28.7266C32.6172 28.7266 32.8047 28.7148 32.9766 28.6914C33.1484 28.668 33.293 28.6445 33.4102 28.6211L33.4219 30.9414C33.1641 31.0273 32.8711 31.0977 32.543 31.1523C32.2227 31.207 31.8594 31.2344 31.4531 31.2344C30.7578 31.2344 30.1484 31.1172 29.625 30.8828C29.1016 30.6406 28.6953 30.2539 28.4062 29.7227C28.1172 29.1836 27.9727 28.4727 27.9727 27.5898V15.2031ZM38.3672 13V14.7227C38.3672 15.2148 38.2734 15.7305 38.0859 16.2695C37.9062 16.8008 37.6562 17.3086 37.3359 17.793C37.0234 18.2695 36.668 18.6797 36.2695 19.0234L34.7695 18.1211C35.082 17.6445 35.3359 17.1367 35.5312 16.5977C35.7344 16.0508 35.8359 15.4297 35.8359 14.7344V13H38.3672ZM45.7734 27.5312C45.7734 27.2656 45.7031 27.0273 45.5625 26.8164C45.4219 26.6055 45.1562 26.4141 44.7656 26.2422C44.3828 26.0625 43.8203 25.8945 43.0781 25.7383C42.4219 25.5977 41.8164 25.4219 41.2617 25.2109C40.707 25 40.2305 24.7461 39.832 24.4492C39.4336 24.1445 39.1211 23.7891 38.8945 23.3828C38.6758 22.9688 38.5664 22.4922 38.5664 21.9531C38.5664 21.4297 38.6797 20.9375 38.9062 20.4766C39.1328 20.0078 39.4609 19.5977 39.8906 19.2461C40.3203 18.8867 40.8438 18.6055 41.4609 18.4023C42.0781 18.1914 42.7734 18.0859 43.5469 18.0859C44.625 18.0859 45.5508 18.2617 46.3242 18.6133C47.1055 18.9648 47.7031 19.4492 48.1172 20.0664C48.5312 20.6758 48.7383 21.3633 48.7383 22.1289H45.6445C45.6445 21.793 45.5664 21.4883 45.4102 21.2148C45.2617 20.9414 45.0312 20.7227 44.7188 20.5586C44.4062 20.3867 44.0117 20.3008 43.5352 20.3008C43.1055 20.3008 42.7422 20.3711 42.4453 20.5117C42.1562 20.6523 41.9375 20.8359 41.7891 21.0625C41.6406 21.2891 41.5664 21.5391 41.5664 21.8125C41.5664 22.0156 41.6055 22.1992 41.6836 22.3633C41.7695 22.5195 41.9062 22.6641 42.0938 22.7969C42.2812 22.9297 42.5352 23.0508 42.8555 23.1602C43.1836 23.2695 43.5859 23.375 44.0625 23.4766C45.0078 23.6641 45.832 23.9141 46.5352 24.2266C47.2461 24.5312 47.8008 24.9375 48.1992 25.4453C48.5977 25.9531 48.7969 26.6016 48.7969 27.3906C48.7969 27.9531 48.6758 28.4688 48.4336 28.9375C48.1914 29.3984 47.8398 29.8008 47.3789 30.1445C46.918 30.4883 46.3672 30.7578 45.7266 30.9531C45.0859 31.1406 44.3633 31.2344 43.5586 31.2344C42.3945 31.2344 41.4102 31.0273 40.6055 30.6133C39.8008 30.1914 39.1914 29.6602 38.7773 29.0195C38.3633 28.3711 38.1562 27.6992 38.1562 27.0039H41.1211C41.1445 27.4961 41.2773 27.8906 41.5195 28.1875C41.7617 28.4844 42.0664 28.6992 42.4336 28.832C42.8086 28.957 43.2031 29.0195 43.6172 29.0195C44.0859 29.0195 44.4805 28.957 44.8008 28.832C45.1211 28.6992 45.3633 28.5234 45.5273 28.3047C45.6914 28.0781 45.7734 27.8203 45.7734 27.5312ZM58.7109 13.9375V31H55.5V13.9375H58.7109ZM64.0078 13.9375V16.4805H50.2617V13.9375H64.0078ZM68.1914 20.9102V31H65.0977V18.3203H68.0273L68.1914 20.9102ZM72.0469 18.2383L72 21.1211C71.8281 21.0898 71.6328 21.0664 71.4141 21.0508C71.2031 21.0352 71.0039 21.0273 70.8164 21.0273C70.3398 21.0273 69.9219 21.0938 69.5625 21.2266C69.2031 21.3516 68.9023 21.5352 68.6602 21.7773C68.4258 22.0195 68.2461 22.3164 68.1211 22.668C67.9961 23.0117 67.9258 23.4023 67.9102 23.8398L67.2422 23.7578C67.2422 22.9531 67.3242 22.207 67.4883 21.5195C67.6523 20.832 67.8906 20.2305 68.2031 19.7148C68.5156 19.1992 68.9062 18.8008 69.375 18.5195C69.8516 18.2305 70.3984 18.0859 71.0156 18.0859C71.1875 18.0859 71.3711 18.1016 71.5664 18.1328C71.7695 18.1562 71.9297 18.1914 72.0469 18.2383ZM80.332 28.3047V22.457C80.332 22.0273 80.2578 21.6562 80.1094 21.3438C79.9609 21.0312 79.7344 20.7891 79.4297 20.6172C79.125 20.4453 78.7383 20.3594 78.2695 20.3594C77.8555 20.3594 77.4922 20.4297 77.1797 20.5703C76.875 20.7109 76.6406 20.9102 76.4766 21.168C76.3125 21.418 76.2305 21.707 76.2305 22.0352H73.125C73.125 21.5117 73.25 21.0156 73.5 20.5469C73.75 20.0703 74.1055 19.6484 74.5664 19.2812C75.0352 18.9062 75.5938 18.6133 76.2422 18.4023C76.8984 18.1914 77.6328 18.0859 78.4453 18.0859C79.4062 18.0859 80.2617 18.25 81.0117 18.5781C81.7695 18.8984 82.3633 19.3828 82.793 20.0312C83.2305 20.6797 83.4492 21.4961 83.4492 22.4805V28.0117C83.4492 28.6445 83.4883 29.1875 83.5664 29.6406C83.6523 30.0859 83.7773 30.4727 83.9414 30.8008V31H80.7891C80.6406 30.6797 80.5273 30.2734 80.4492 29.7812C80.3711 29.2812 80.332 28.7891 80.332 28.3047ZM80.7656 23.2773L80.7891 25.1172H78.832C78.3477 25.1172 77.9219 25.168 77.5547 25.2695C77.1875 25.3633 76.8867 25.5039 76.6523 25.6914C76.418 25.8711 76.2422 26.0898 76.125 26.3477C76.0078 26.5977 75.9492 26.8828 75.9492 27.2031C75.9492 27.5156 76.0195 27.7969 76.1602 28.0469C76.3086 28.2969 76.5195 28.4961 76.793 28.6445C77.0742 28.7852 77.4023 28.8555 77.7773 28.8555C78.3242 28.8555 78.8008 28.7461 79.207 28.5273C79.6133 28.3008 79.9297 28.0273 80.1562 27.707C80.3828 27.3867 80.5039 27.082 80.5195 26.793L81.4102 28.1289C81.3008 28.4492 81.1367 28.7891 80.918 29.1484C80.6992 29.5078 80.418 29.8438 80.0742 30.1562C79.7305 30.4688 79.3164 30.7266 78.832 30.9297C78.3477 31.1328 77.7852 31.2344 77.1445 31.2344C76.3242 31.2344 75.5898 31.0703 74.9414 30.7422C74.293 30.4141 73.7812 29.9648 73.4062 29.3945C73.0312 28.8242 72.8438 28.1758 72.8438 27.4492C72.8438 26.7773 72.9688 26.1836 73.2188 25.668C73.4688 25.1523 73.8398 24.7188 74.332 24.3672C74.8242 24.0078 75.4336 23.7383 76.1602 23.5586C76.8945 23.3711 77.7344 23.2773 78.6797 23.2773H80.7656ZM90.2578 28.6562L93.2109 18.3203H96.4453L92.0977 31H90.1289L90.2578 28.6562ZM88.1016 18.3203L91.0898 28.6797L91.1953 31H89.2148L84.8555 18.3203H88.1016ZM103.605 31.2344C102.645 31.2344 101.781 31.0781 101.016 30.7656C100.25 30.4531 99.5977 30.0195 99.0586 29.4648C98.5273 28.9023 98.1172 28.25 97.8281 27.5078C97.5469 26.7578 97.4062 25.9531 97.4062 25.0938V24.625C97.4062 23.6484 97.5469 22.7617 97.8281 21.9648C98.1094 21.1602 98.5078 20.4688 99.0234 19.8906C99.5391 19.3125 100.156 18.8672 100.875 18.5547C101.594 18.2422 102.387 18.0859 103.254 18.0859C104.152 18.0859 104.945 18.2383 105.633 18.543C106.32 18.8398 106.895 19.2617 107.355 19.8086C107.816 20.3555 108.164 21.0117 108.398 21.7773C108.633 22.5352 108.75 23.375 108.75 24.2969V25.5977H98.8125V23.4648H105.703V23.2305C105.688 22.7383 105.594 22.2891 105.422 21.8828C105.25 21.4688 104.984 21.1406 104.625 20.8984C104.266 20.6484 103.801 20.5234 103.23 20.5234C102.77 20.5234 102.367 20.625 102.023 20.8281C101.688 21.0234 101.406 21.3047 101.18 21.6719C100.961 22.0312 100.797 22.4609 100.688 22.9609C100.578 23.4609 100.523 24.0156 100.523 24.625V25.0938C100.523 25.625 100.594 26.1172 100.734 26.5703C100.883 27.0234 101.098 27.418 101.379 27.7539C101.668 28.082 102.012 28.3398 102.41 28.5273C102.816 28.707 103.277 28.7969 103.793 28.7969C104.441 28.7969 105.027 28.6719 105.551 28.4219C106.082 28.1641 106.543 27.7852 106.934 27.2852L108.492 28.9023C108.227 29.293 107.867 29.668 107.414 30.0273C106.969 30.3867 106.43 30.6797 105.797 30.9062C105.164 31.125 104.434 31.2344 103.605 31.2344ZM114.105 13V31H111V13H114.105Z" fill="white"/>
<path fill-rule="evenodd" clip-rule="evenodd" d="M136.012 26.3334L129.891 24.4898C127.297 23.7086 126 23.318 126 22.5748C126 21.8316 127.297 21.441 129.891 20.6597L146.888 15.5408C148.564 15.0361 149.401 14.7837 149.825 15.2345C150.25 15.6852 149.947 16.5062 149.341 18.148L143.54 33.871C142.754 36.0022 142.361 37.0679 141.664 37.0679C140.967 37.0679 140.574 36.0022 139.788 33.871L137.504 27.6811L143.845 21.9516C144.255 21.5813 144.287 20.949 143.917 20.5392C143.547 20.1294 142.914 20.0974 142.505 20.4676L136.012 26.3334Z" fill="#FFCB45"/>
</svg>
